#!OML:ASF X:\für Bonn\!DataBase\2005_08_12_Daniel\c3d\Daniel.ASF
:FULLY-SPECIFIED
:DEGREES
46
root -36.793 16.3524 -1.06392 480.912 91.4564 -2043.71
lowerback 22.5348 -1.82226 2.75358
upperback 2.13681 -1.7362 -1.87781
thorax -10.4086 -0.910528 -3.13893
lowerneck 4.28372 1.30407 -5.73728
upperneck -2.06065 1.44589 0.65514
head -1.42213 0.762856 1.14329
rclavicle 1.8487e-014 1.66979e-014
rhumerus 16.4435 33.7244 -85.391
rradius 78.0639
rwrist 1.89015
rhand -33.775 30.7732
rfingers 7.12502
rthumb -6.96237 0.907681
lclavicle 1.8487e-014 1.66979e-014
lhumerus 20.935 -20.9459 77.1302
lradius 88.4225
lwrist 9.55264
lhand -15.5901 -12.7678
lfingers 7.12502
lthumb 10.5955 16.9451
rfemur -12.6494 -3.58611 22.0005
rtibia 60.8149
rfoot -15.7031 3.27406
rtoes -10.1772
lfemur -11.5766 -0.0417251 -20.4337
ltibia 65.001
lfoot -20.27 5.4639
ltoes 9.55059
47
root -36.4578 16.5429 -1.05511 485.782 91.5788 -2038.45
lowerback 21.5239 -1.71843 2.78681
upperback 1.82031 -1.64707 -1.90851
thorax -10.2073 -0.884848 -3.22485
lowerneck 5.5199 1.41894 -5.98219
upperneck -1.40528 1.51961 0.85963
head -1.43807 0.786869 1.24608
rclavicle 1.37161e-014 2.38542e-015
rhumerus 15.8319 34.393 -85.2412
rradius 79.9914
rwrist 1.37204
rhand -33.1659 31.283
rfingers 7.12502
rthumb -6.37439 1.39896
lclavicle 1.37161e-014 2.38542e-015
lhumerus 21.2331 -21.8714 76.2951
lradius 90.312
lwrist 9.22731
lhand -15.6113 -13.0858
lfingers 7.12502
lthumb 10.5751 16.6281
rfemur -10.4335 -3.26211 21.9203
rtibia 58.2635
rfoot -11.5923 2.19508
rtoes -9.90153
lfemur -9.70889 -0.025326 -20.3704
ltibia 63.1686
lfoot -16.6793 5.96786
ltoes 6.22498
48
root -36.1233 16.7376 -1.0467 489.958 91.6889 -2033.91
lowerback 20.604 -1.62825 2.83139
upperback 1.50843 -1.56876 -1.95101
thorax -10.0468 -0.863874 -3.32506
lowerneck 6.56757 1.53958 -6.24058
upperneck -0.694173 1.61251 1.09714
head -1.40427 0.819855 1.36149
rclavicle -9.93923e-016 1.90833e-014
rhumerus 15.1495 34.9916 -85.1272
rradius 81.8459
rwrist 0.977263
rhand -32.3831 31.3477
rfingers 7.12502
rthumb -5.61858 1.44217
lclavicle -9.93923e-016 1.90833e-014
lhumerus 21.4961 -22.8027 75.4207
lradius 92.0873
lwrist 9.0048
lhand -15.473 -13.0765
lfingers 7.12502
lthumb 10.7085 16.6306
rfemur -8.49085 -2.84219 21.842
rtibia 55.9102
rfoot -7.05993 0.865332
rtoes -9.91283
lfemur -8.10856 -0.0612517 -20.3442
ltibia 61.5806
lfoot -12.9435 6.37325
ltoes 2.72171
49
root -35.7898 16.9377 -1.03764 493.005 91.8468 -2030.48
lowerback 19.886 -1.54489 2.90086
upperback 1.19683 -1.48529 -1.99242
thorax -9.99356 -0.841488 -3.43765
lowerneck 7.32228 1.63163 -6.37372
upperneck 0.178931 1.69741 1.26791
head -1.26311 0.848352 1.43349
rclavicle -1.19271e-015 4.77083e-015
rhumerus 14.5303 35.5005 -85.0862
rradius 83.5974
rwrist 0.728825
rhand -31.4536 30.9323
rfingers 7.12502
rthumb -4.72115 1.00495
lclavicle -1.19271e-015 4.77083e-015
lhumerus 21.8776 -23.7238 74.4404
lradius 93.574
lwrist 8.93355
lhand -15.2245 -12.7676
lfingers 7.12502
lthumb 10.9482 16.9269
rfemur -6.77848 -2.36532 21.8417
rtibia 53.8363
rfoot -2.16346 -0.454392
rtoes -9.45158
lfemur -6.72771 -0.0819225 -20.2704
ltibia 60.2794
lfoot -9.03027 6.42404
ltoes -1.34314
50
root -35.4624 17.1406 -1.02916 496.961 91.9724 -2026.13
lowerback 19.3498 -1.46547 2.89508
upperback 0.874275 -1.41674 -2.03403
thorax -10.0498 -0.82344 -3.50152
lowerneck 7.89633 1.70991 -6.47792
upperneck 1.11129 1.78025 1.37392
head -1.0695 0.877847 1.47968
rclavicle -3.77691e-015 -1.59028e-014
rhumerus 14.0063 36.0534 -84.9462
rradius 85.3604
rwrist 0.468615
rhand -30.3663 30.0696
rfingers 7.12502
rthumb -3.67118 0.121434
lclavicle -3.77691e-015 -1.59028e-014
lhumerus 22.1927 -24.6148 73.4957
lradius 94.9119
lwrist 8.93506
lhand -14.7689 -12.2864
lfingers 7.12502
lthumb 11.3876 17.3844
rfemur -5.34591 -1.79099 21.8174
rtibia 52.1193
rfoot 3.01829 -1.79596
rtoes -8.57363
lfemur -5.67682 -0.156344 -20.2836
ltibia 59.3314
lfoot -5.00261 6.29124
ltoes -6.25811
51
root -35.1461 17.3408 -1.02104 499.378 92.128 -2023.33
lowerback 18.92 -1.39868 2.96162
upperback 0.600739 -1.34449 -2.09731
thorax -10.1115 -0.805423 -3.63107
lowerneck 8.36396 1.77333 -6.5525
upperneck 2.04078 1.85506 1.51816
head -0.858428 0.904124 1.53385
rclavicle 1.5704e-014 1.90833e-014
rhumerus 13.7682 36.623 -84.6842
rradius 86.6767
rwrist 0.262757
rhand -29.4059 29.255
rfingers 7.12502
rthumb -2.74368 -0.70708
lclavicle 1.5704e-014 1.90833e-014
lhumerus 22.4493 -25.6011 72.4674
lradius 96.1252
lwrist 9.11112
lhand -14.2921 -11.784
lfingers 7.12502
lthumb 11.8475 17.8608
rfemur -4.20756 -1.21295 21.8844
rtibia 50.8126
rfoot 8.29554 -3.10578
rtoes -8.14451
lfemur -4.91857 -0.236502 -20.2443
ltibia 58.7767
lfoot -1.18054 5.73976
ltoes -11.4098
52
root -34.8375 17.5333 -1.01387 502.889 92.2653 -2019.41
lowerback 18.5375 -1.32527 2.93178
upperback 0.395023 -1.27747 -2.14323
thorax -10.1203 -0.781167 -3.68393
lowerneck 8.92734 1.855 -6.69348
upperneck 2.78294 1.93892 1.6401
head -0.724632 0.938478 1.59265
rclavicle 1.19271e-015 2.70347e-014
rhumerus 13.6777 37.2646 -84.3214
rradius 87.6559
rwrist 0.0818306
rhand -28.6068 28.7494
rfingers 7.12502
rthumb -1.972 -1.22121
lclavicle 1.19271e-015 2.70347e-014
lhumerus 22.8046 -26.6076 71.3843
lradius 96.9794
lwrist 9.38462
lhand -13.9647 -11.4988
lfingers 7.12502
lthumb 12.1632 18.1276
rfemur -3.34151 -0.540922 21.9507
rtibia 49.9623
rfoot 13.2411 -4.30572
rtoes -7.79761
lfemur -4.40211 -0.398089 -20.3073
ltibia 58.6459
lfoot 2.08918 4.46925
ltoes -16.2253
53
root -34.5343 17.7162 -1.00631 505.647 92.4245 -2016.28
lowerback 18.0857 -1.26264 2.91966
upperback 0.31322 -1.21778 -2.19079
thorax -9.95252 -0.754269 -3.74566
lowerneck 9.40602 1.93213 -6.88871
upperneck 3.41228 2.01376 1.77968
head -0.612821 0.968956 1.66785
rclavicle -7.95139e-016 5.56597e-015
rhumerus 13.8781 37.9246 -83.8051
rradius 88.3429
rwrist -0.233067
rhand -27.9763 28.6577
rfingers 7.12502
rthumb -1.36299 -1.31772
lclavicle -7.95139e-016 5.56597e-015
lhumerus 23.3928 -27.5932 70.1346
lradius 97.5908
lwrist 9.88995
lhand -13.7957 -11.5027
lfingers 7.12502
lthumb 12.3261 18.114
rfemur -2.75049 0.0682013 22.0715
rtibia 49.5568
rfoot 17.6296 -5.3048
rtoes -7.60137
lfemur -4.09111 -0.673435 -20.3761
ltibia 58.8317
lfoot 4.50287 2.60115
ltoes -20.6834
